{
	"asset":{
		"generator":"Khronos glTF Blender I/O v4.0.44",
		"version":"2.0"
	},
	"extensionsUsed":[
		"KHR_materials_emissive_strength",
		"KHR_materials_transmission",
		"KHR_materials_ior"
	],
	"scene":0,
	"scenes":[
		{
			"name":"Scene",
			"nodes":[
				0,
				1,
				2,
				3,
				4,
				5,
				6,
				7,
				8,
				9,
				10
			]
		}
	],
	"nodes":[
		{
			"camera":0,
			"name":"Camera",
			"rotation":[
				-0.01765945926308632,
				0.7135915756225586,
				0.017998995259404182,
				0.7001080513000488
			],
			"translation":[
				6.060091018676758,
				1.2408419847488403,
				-0.16378504037857056
			]
		},
		{
			"mesh":0,
			"name":"Plane"
		},
		{
			"mesh":1,
			"name":"Plane.001",
			"rotation":[
				0,
				0,
				-0.7071068286895752,
				0.7071068286895752
			],
			"translation":[
				-1,
				1,
				0
			]
		},
		{
			"mesh":2,
			"name":"Plane.002",
			"rotation":[
				-0.5,
				0.5,
				-0.5,
				0.5
			],
			"translation":[
				0,
				1,
				1
			]
		},
		{
			"mesh":3,
			"name":"Plane.003",
			"rotation":[
				0.5,
				-0.5,
				-0.5,
				0.5
			],
			"translation":[
				0,
				1,
				-1
			]
		},
		{
			"mesh":4,
			"name":"Plane.004",
			"rotation":[
				0,
				0,
				1,
				4.371138828673793e-08
			],
			"translation":[
				0,
				2,
				0
			]
		},
		{
			"mesh":5,
			"name":"Light",
			"rotation":[
				0,
				0,
				1,
				4.371138828673793e-08
			],
			"scale":[
				0.014999999664723873,
				1,
				0.014999999664723873
			],
			"translation":[
				0,
				1.9999899864196777,
				0
			]
		},
		{
			"mesh":6,
			"name":"Sphere.001",
			"scale":[
				0.949999988079071,
				0.949999988079071,
				0.949999988079071
			],
			"translation":[
				-0.38999998569488525,
				0.4300000071525574,
				0.4699999988079071
			]
		},
		{
			"mesh":7,
			"name":"Sphere.002",
			"scale":[
				0.7200000286102295,
				0.7200000286102295,
				0.7200000286102295
			],
			"translation":[
				0.23000000417232513,
				0.32499998807907104,
				-0.41999998688697815
			]
		},
		{
			"mesh":8,
			"name":"IcoSphere",
			"translation":[
				0.12999999523162842,
				1.4600000381469727,
				-0.550000011920929
			]
		},
		{
			"mesh":9,
			"name":"MetalSphere",
			"translation":[
				0.24000000953674316,
				1.559999942779541,
				0.6000000238418579
			]
		}
	],
	"cameras":[
		{
			"name":"Camera",
			"perspective":{
				"aspectRatio":1.7777777777777777,
				"yfov":0.39959652046304894,
				"zfar":100,
				"znear":0.10000000149011612
			},
			"type":"perspective"
		}
	],
	"materials":[
		{
			"doubleSided":true,
			"name":"Grey",
			"pbrMetallicRoughness":{
				"metallicFactor":0
			}
		},
		{
			"doubleSided":true,
			"name":"Red",
			"pbrMetallicRoughness":{
				"baseColorFactor":[
					1,
					0,
					0.006546030752360821,
					1
				],
				"metallicFactor":0
			}
		},
		{
			"doubleSided":true,
			"name":"Green",
			"pbrMetallicRoughness":{
				"baseColorFactor":[
					0,
					1,
					0,
					1
				],
				"metallicFactor":0
			}
		},
		{
			"doubleSided":true,
			"emissiveFactor":[
				1,
				1,
				1
			],
			"extensions":{
				"KHR_materials_emissive_strength":{
					"emissiveStrength":10000
				}
			},
			"name":"Light",
			"pbrMetallicRoughness":{
				"baseColorFactor":[
					0,
					0,
					0,
					1
				],
				"metallicFactor":0
			}
		},
		{
			"doubleSided":true,
			"extensions":{
				"KHR_materials_transmission":{
					"transmissionFactor":1
				},
				"KHR_materials_ior":{
					"ior":1.4500000476837158
				}
			},
			"name":"Glas",
			"pbrMetallicRoughness":{
				"metallicFactor":0,
				"roughnessFactor":0
			}
		},
		{
			"doubleSided":true,
			"name":"Metall",
			"pbrMetallicRoughness":{
				"baseColorFactor":[
					0.5000818371772766,
					0.5000818371772766,
					0.5000818371772766,
					1
				],
				"roughnessFactor":0
			}
		}
	],
	"meshes":[
		{
			"name":"Plane",
			"primitives":[
				{
					"attributes":{
						"POSITION":0,
						"NORMAL":1,
						"TEXCOORD_0":2
					},
					"indices":3,
					"material":0
				}
			]
		},
		{
			"name":"Plane.001",
			"primitives":[
				{
					"attributes":{
						"POSITION":4,
						"NORMAL":5,
						"TEXCOORD_0":6
					},
					"indices":3,
					"material":0
				}
			]
		},
		{
			"name":"Plane.002",
			"primitives":[
				{
					"attributes":{
						"POSITION":7,
						"NORMAL":8,
						"TEXCOORD_0":9
					},
					"indices":3,
					"material":1
				}
			]
		},
		{
			"name":"Plane.003",
			"primitives":[
				{
					"attributes":{
						"POSITION":10,
						"NORMAL":11,
						"TEXCOORD_0":12
					},
					"indices":3,
					"material":2
				}
			]
		},
		{
			"name":"Plane.004",
			"primitives":[
				{
					"attributes":{
						"POSITION":13,
						"NORMAL":14,
						"TEXCOORD_0":15
					},
					"indices":3,
					"material":0
				}
			]
		},
		{
			"name":"Plane.005",
			"primitives":[
				{
					"attributes":{
						"POSITION":16,
						"NORMAL":17,
						"TEXCOORD_0":18
					},
					"indices":3,
					"material":3
				}
			]
		},
		{
			"name":"Sphere.002",
			"primitives":[
				{
					"attributes":{
						"POSITION":19,
						"NORMAL":20,
						"TEXCOORD_0":21
					},
					"indices":22,
					"material":4
				}
			]
		},
		{
			"name":"Sphere.003",
			"primitives":[
				{
					"attributes":{
						"POSITION":23,
						"NORMAL":24,
						"TEXCOORD_0":25
					},
					"indices":22,
					"material":4
				}
			]
		},
		{
			"name":"Icosphere",
			"primitives":[
				{
					"attributes":{
						"POSITION":26,
						"NORMAL":27,
						"TEXCOORD_0":28
					},
					"indices":29,
					"material":4
				}
			]
		},
		{
			"name":"Sphere.004",
			"primitives":[
				{
					"attributes":{
						"POSITION":30,
						"NORMAL":31,
						"TEXCOORD_0":32
					},
					"indices":33,
					"material":5
				}
			]
		}
	],
	"accessors":[
		{
			"bufferView":0,
			"componentType":5126,
			"count":4,
			"max":[
				1,
				0,
				1
			],
			"min":[
				-1,
				0,
				-1
			],
			"type":"VEC3"
		},
		{
			"bufferView":1,
			"componentType":5126,
			"count":4,
			"type":"VEC3"
		},
		{
			"bufferView":2,
			"componentType":5126,
			"count":4,
			"type":"VEC2"
		},
		{
			"bufferView":3,
			"componentType":5123,
			"count":6,
			"type":"SCALAR"
		},
		{
			"bufferView":4,
			"componentType":5126,
			"count":4,
			"max":[
				1,
				0,
				1
			],
			"min":[
				-1,
				0,
				-1
			],
			"type":"VEC3"
		},
		{
			"bufferView":5,
			"componentType":5126,
			"count":4,
			"type":"VEC3"
		},
		{
			"bufferView":6,
			"componentType":5126,
			"count":4,
			"type":"VEC2"
		},
		{
			"bufferView":7,
			"componentType":5126,
			"count":4,
			"max":[
				1,
				0,
				1
			],
			"min":[
				-1,
				0,
				-1
			],
			"type":"VEC3"
		},
		{
			"bufferView":8,
			"componentType":5126,
			"count":4,
			"type":"VEC3"
		},
		{
			"bufferView":9,
			"componentType":5126,
			"count":4,
			"type":"VEC2"
		},
		{
			"bufferView":10,
			"componentType":5126,
			"count":4,
			"max":[
				1,
				0,
				1
			],
			"min":[
				-1,
				0,
				-1
			],
			"type":"VEC3"
		},
		{
			"bufferView":11,
			"componentType":5126,
			"count":4,
			"type":"VEC3"
		},
		{
			"bufferView":12,
			"componentType":5126,
			"count":4,
			"type":"VEC2"
		},
		{
			"bufferView":13,
			"componentType":5126,
			"count":4,
			"max":[
				1,
				0,
				1
			],
			"min":[
				-1,
				0,
				-1
			],
			"type":"VEC3"
		},
		{
			"bufferView":14,
			"componentType":5126,
			"count":4,
			"type":"VEC3"
		},
		{
			"bufferView":15,
			"componentType":5126,
			"count":4,
			"type":"VEC2"
		},
		{
			"bufferView":16,
			"componentType":5126,
			"count":4,
			"max":[
				1,
				0,
				1
			],
			"min":[
				-1,
				0,
				-1
			],
			"type":"VEC3"
		},
		{
			"bufferView":17,
			"componentType":5126,
			"count":4,
			"type":"VEC3"
		},
		{
			"bufferView":18,
			"componentType":5126,
			"count":4,
			"type":"VEC2"
		},
		{
			"bufferView":19,
			"componentType":5126,
			"count":66047,
			"max":[
				0.4300000071525574,
				0.4300000071525574,
				0.429999977350235
			],
			"min":[
				-0.4299999177455902,
				-0.4300000071525574,
				-0.4300000071525574
			],
			"type":"VEC3"
		},
		{
			"bufferView":20,
			"componentType":5126,
			"count":66047,
			"type":"VEC3"
		},
		{
			"bufferView":21,
			"componentType":5126,
			"count":66047,
			"type":"VEC2"
		},
		{
			"bufferView":22,
			"componentType":5125,
			"count":391680,
			"type":"SCALAR"
		},
		{
			"bufferView":23,
			"componentType":5126,
			"count":66047,
			"max":[
				0.4300000071525574,
				0.4300000071525574,
				0.429999977350235
			],
			"min":[
				-0.4299999177455902,
				-0.4300000071525574,
				-0.4300000071525574
			],
			"type":"VEC3"
		},
		{
			"bufferView":24,
			"componentType":5126,
			"count":66047,
			"type":"VEC3"
		},
		{
			"bufferView":25,
			"componentType":5126,
			"count":66047,
			"type":"VEC2"
		},
		{
			"bufferView":26,
			"componentType":5126,
			"count":960,
			"max":[
				0.3100000023841858,
				0.3100000023841858,
				0.3100000023841858
			],
			"min":[
				-0.3100000023841858,
				-0.3100000023841858,
				-0.3100000023841858
			],
			"type":"VEC3"
		},
		{
			"bufferView":27,
			"componentType":5126,
			"count":960,
			"type":"VEC3"
		},
		{
			"bufferView":28,
			"componentType":5126,
			"count":960,
			"type":"VEC2"
		},
		{
			"bufferView":29,
			"componentType":5123,
			"count":960,
			"type":"SCALAR"
		},
		{
			"bufferView":30,
			"componentType":5126,
			"count":480,
			"max":[
				0.24000000953674316,
				0.23999999463558197,
				0.23999999463558197
			],
			"min":[
				-0.23999997973442078,
				-0.23999999463558197,
				-0.23999999463558197
			],
			"type":"VEC3"
		},
		{
			"bufferView":31,
			"componentType":5126,
			"count":480,
			"type":"VEC3"
		},
		{
			"bufferView":32,
			"componentType":5126,
			"count":480,
			"type":"VEC2"
		},
		{
			"bufferView":33,
			"componentType":5123,
			"count":672,
			"type":"SCALAR"
		}
	],
	"bufferViews":[
		{
			"buffer":0,
			"byteLength":48,
			"byteOffset":0,
			"target":34962
		},
		{
			"buffer":0,
			"byteLength":48,
			"byteOffset":48,
			"target":34962
		},
		{
			"buffer":0,
			"byteLength":32,
			"byteOffset":96,
			"target":34962
		},
		{
			"buffer":0,
			"byteLength":12,
			"byteOffset":128,
			"target":34963
		},
		{
			"buffer":0,
			"byteLength":48,
			"byteOffset":140,
			"target":34962
		},
		{
			"buffer":0,
			"byteLength":48,
			"byteOffset":188,
			"target":34962
		},
		{
			"buffer":0,
			"byteLength":32,
			"byteOffset":236,
			"target":34962
		},
		{
			"buffer":0,
			"byteLength":48,
			"byteOffset":268,
			"target":34962
		},
		{
			"buffer":0,
			"byteLength":48,
			"byteOffset":316,
			"target":34962
		},
		{
			"buffer":0,
			"byteLength":32,
			"byteOffset":364,
			"target":34962
		},
		{
			"buffer":0,
			"byteLength":48,
			"byteOffset":396,
			"target":34962
		},
		{
			"buffer":0,
			"byteLength":48,
			"byteOffset":444,
			"target":34962
		},
		{
			"buffer":0,
			"byteLength":32,
			"byteOffset":492,
			"target":34962
		},
		{
			"buffer":0,
			"byteLength":48,
			"byteOffset":524,
			"target":34962
		},
		{
			"buffer":0,
			"byteLength":48,
			"byteOffset":572,
			"target":34962
		},
		{
			"buffer":0,
			"byteLength":32,
			"byteOffset":620,
			"target":34962
		},
		{
			"buffer":0,
			"byteLength":48,
			"byteOffset":652,
			"target":34962
		},
		{
			"buffer":0,
			"byteLength":48,
			"byteOffset":700,
			"target":34962
		},
		{
			"buffer":0,
			"byteLength":32,
			"byteOffset":748,
			"target":34962
		},
		{
			"buffer":0,
			"byteLength":792564,
			"byteOffset":780,
			"target":34962
		},
		{
			"buffer":0,
			"byteLength":792564,
			"byteOffset":793344,
			"target":34962
		},
		{
			"buffer":0,
			"byteLength":528376,
			"byteOffset":1585908,
			"target":34962
		},
		{
			"buffer":0,
			"byteLength":1566720,
			"byteOffset":2114284,
			"target":34963
		},
		{
			"buffer":0,
			"byteLength":792564,
			"byteOffset":3681004,
			"target":34962
		},
		{
			"buffer":0,
			"byteLength":792564,
			"byteOffset":4473568,
			"target":34962
		},
		{
			"buffer":0,
			"byteLength":528376,
			"byteOffset":5266132,
			"target":34962
		},
		{
			"buffer":0,
			"byteLength":11520,
			"byteOffset":5794508,
			"target":34962
		},
		{
			"buffer":0,
			"byteLength":11520,
			"byteOffset":5806028,
			"target":34962
		},
		{
			"buffer":0,
			"byteLength":7680,
			"byteOffset":5817548,
			"target":34962
		},
		{
			"buffer":0,
			"byteLength":1920,
			"byteOffset":5825228,
			"target":34963
		},
		{
			"buffer":0,
			"byteLength":5760,
			"byteOffset":5827148,
			"target":34962
		},
		{
			"buffer":0,
			"byteLength":5760,
			"byteOffset":5832908,
			"target":34962
		},
		{
			"buffer":0,
			"byteLength":3840,
			"byteOffset":5838668,
			"target":34962
		},
		{
			"buffer":0,
			"byteLength":1344,
			"byteOffset":5842508,
			"target":34963
		}
	],
	"buffers":[
		{
			"byteLength":5843852,
			"uri":"CornelBoxPaper.bin"
		}
	]
}
